<svg xmlns="http://www.w3.org/2000/svg" viewBox="0 0 2241.03 2241.03"><defs><style>.cls-1{fill:#7f3f98;}</style></defs><g id="Layer_2" data-name="Layer 2"><g id="Layer_2-2" data-name="Layer 2"><path class="cls-1" d="M1310.64,574.75A562.68,562.68,0,0,1,1352,787.25a37.5,37.5,0,0,1-75,0,488,488,0,0,0-35.86-184.31,37.5,37.5,0,1,1,69.5-28.19ZM574.75,263.85A561.27,561.27,0,0,0,387.91,387.91a37.5,37.5,0,0,0,53,53A490.35,490.35,0,0,1,971.56,333.36a37.5,37.5,0,0,0,28.19-69.51,566.7,566.7,0,0,0-425,0Zm769.17-33.27A792.27,792.27,0,0,1,1444.7,354a783.82,783.82,0,0,1,115.4,283,789,789,0,0,1-43.26,446.41,782.26,782.26,0,0,1-124.17,207.08l155.78,155.77,7.76-7.76a69.23,69.23,0,0,1,97.61,0l567.07,567.07a69.21,69.21,0,0,1,0,97.61l-117.7,117.7a69.21,69.21,0,0,1-97.61,0l-567.07-567.07a69.23,69.23,0,0,1,0-97.61l7.76-7.76L1290.5,1392.67a787.79,787.79,0,1,1,53.42-1162.09Zm264,1299.41a33.75,33.75,0,0,0,0,47.73l477.65,477.65a33.75,33.75,0,1,0,47.73-47.73L1655.65,1530A33.75,33.75,0,0,0,1607.92,1530ZM1248.46,326C993.74,71.32,580.76,71.32,326,326s-254.72,667.7,0,922.42,667.7,254.72,922.42,0S1503.18,580.76,1248.46,326Z"/></g></g></svg>